<svg xmlns="http://www.w3.org/2000/svg" width="33.505" height="33.505" viewBox="0 0 33.505 33.505">
  <g id="_002-address" data-name="002-address" transform="translate(-0.001 0)">
    <path id="Path_45" data-name="Path 45" d="M306.654,260a.654.654,0,1,0,.654.654A.655.655,0,0,0,306.654,260Zm0,0" transform="translate(-285.975 -242.986)" fill="#fff"/>
    <path id="Path_46" data-name="Path 46" d="M6.686,24.2.143,32.444A.654.654,0,0,0,.655,33.5h32.2a.654.654,0,0,0,.513-1.061L26.82,24.2a.654.654,0,0,0-.513-.248H20.575l4.894-7.676a10.47,10.47,0,1,0-17.431,0l4.894,7.676H7.2a.655.655,0,0,0-.513.248ZM4.243,29.382H8.2L5.967,32.2H2.01Zm9.523-4.123,1.794,2.814H10.91l2.233-2.814Zm5.975,0h.623L22.6,28.073h-4.65Zm3.895,4.123L25.869,32.2H7.638l2.233-2.814Zm3.9,2.814-2.233-2.814h3.957L31.5,32.2Zm.685-4.123H24.268l-2.233-2.814h3.957ZM9.13,15.554a9.161,9.161,0,1,1,15.247,0l-.008.012L16.753,27.51,9.137,15.565l-.007-.012Zm2.342,9.705L9.239,28.073H5.282l2.233-2.814Zm0,0" fill="#fff"/>
    <path id="Path_47" data-name="Path 47" d="M162.544,73.088A6.544,6.544,0,1,0,156,66.544,6.545,6.545,0,0,0,162.544,73.088Zm0-11.779a5.235,5.235,0,1,1-5.235,5.235A5.241,5.241,0,0,1,162.544,61.309Zm0,0" transform="translate(-145.791 -56.074)" fill="#fff"/>
    <path id="Path_48" data-name="Path 48" d="M249.407,292.782a.654.654,0,0,0-.9.223l-2.419,4.013a.654.654,0,0,0,1.121.676l2.419-4.013A.654.654,0,0,0,249.407,292.782Zm0,0" transform="translate(-229.898 -273.535)" fill="#fff"/>
  </g>
</svg>
