<svg id="_003-notes" data-name="003-notes" xmlns="http://www.w3.org/2000/svg" width="32.437" height="32.437" viewBox="0 0 32.437 32.437">
  <g id="Group_13" data-name="Group 13" transform="translate(8.109 9.461)">
    <path id="Path_39" data-name="Path 39" d="M140.84,149.333H128.676a.676.676,0,1,0,0,1.352H140.84a.676.676,0,0,0,0-1.352Z" transform="translate(-128 -149.333)" fill="#fff"/>
  </g>
  <g id="Group_15" data-name="Group 15" transform="translate(2.703 24.328)">
    <path id="Path_40" data-name="Path 40" d="M44.694,384a2.027,2.027,0,1,0,2.027,2.027A2.03,2.03,0,0,0,44.694,384Zm0,2.7a.676.676,0,1,1,.676-.676A.676.676,0,0,1,44.694,386.7Z" transform="translate(-42.667 -384)" fill="#fff"/>
  </g>
  <g id="Group_17" data-name="Group 17" transform="translate(2.703 18.921)">
    <path id="Path_41" data-name="Path 41" d="M44.694,298.667a2.027,2.027,0,1,0,2.027,2.027A2.03,2.03,0,0,0,44.694,298.667Zm0,2.7a.676.676,0,1,1,.676-.676A.676.676,0,0,1,44.694,301.37Z" transform="translate(-42.667 -298.667)" fill="#fff"/>
  </g>
  <g id="Group_19" data-name="Group 19" transform="translate(2.703 13.515)">
    <path id="Path_42" data-name="Path 42" d="M44.694,213.333a2.027,2.027,0,1,0,2.027,2.027A2.03,2.03,0,0,0,44.694,213.333Zm0,2.7a.676.676,0,1,1,.676-.676A.676.676,0,0,1,44.694,216.036Z" transform="translate(-42.667 -213.333)" fill="#fff"/>
  </g>
  <g id="Group_21" data-name="Group 21" transform="translate(2.703 8.109)">
    <path id="Path_43" data-name="Path 43" d="M44.694,128a2.027,2.027,0,1,0,2.027,2.027A2.03,2.03,0,0,0,44.694,128Zm0,2.7a.676.676,0,1,1,.676-.676A.676.676,0,0,1,44.694,130.7Z" transform="translate(-42.667 -128)" fill="#fff"/>
  </g>
  <g id="Group_23" data-name="Group 23">
    <path id="Path_44" data-name="Path 44" d="M28.893,6.758a3.519,3.519,0,0,0-2.5,1.038L24.525,9.659l-.2.2V4.73A2.03,2.03,0,0,0,22.3,2.7H18.8a2.024,2.024,0,0,0-1.9-1.352H14.5a2.689,2.689,0,0,0-4.666,0h-2.4A2.024,2.024,0,0,0,5.531,2.7h-3.5A2.03,2.03,0,0,0,0,4.73V30.409a2.03,2.03,0,0,0,2.027,2.027H22.3a2.03,2.03,0,0,0,2.027-2.027V19.876l5.2-5.2,0,0,0,0L31.4,12.8a3.542,3.542,0,0,0-2.506-6.047ZM6.758,3.379A.676.676,0,0,1,7.433,2.7h2.827a.678.678,0,0,0,.637-.45,1.34,1.34,0,0,1,2.533,0,.676.676,0,0,0,.637.45h2.827a.676.676,0,0,1,.676.676v.676H6.758ZM22.976,30.409a.676.676,0,0,1-.676.676H2.027a.676.676,0,0,1-.676-.676V4.73a.676.676,0,0,1,.676-.676H5.406V4.73a.676.676,0,0,0,.676.676H18.246a.676.676,0,0,0,.676-.676V4.055H22.3a.676.676,0,0,1,.676.676v6.478l-3.744,3.744a.661.661,0,0,0-.311-.085H8.785a.676.676,0,1,0,0,1.352h9.181l-4.055,4.055H8.785a.676.676,0,1,0,0,1.352h4.541l-1.014,4.055H8.785a.676.676,0,1,0,0,1.352H12.84A.612.612,0,0,0,13,27.009l5.406-1.352c.016,0,.027-.019.043-.024a.679.679,0,0,0,.228-.128c.012-.011.031-.012.043-.024l4.252-4.253v9.182Zm-8.282-8.681A4.274,4.274,0,0,1,17.466,24.5l-3.7.926Zm3.91,1.96a5.587,5.587,0,0,0-3.1-3.1l9.5-9.5,3.1,3.1ZM30.443,11.849l-1.387,1.387-3.1-3.1L27.346,8.75a2.191,2.191,0,0,1,3.1,3.1Z" fill="#fff"/>
  </g>
</svg>
