<svg id="_001-office-building" data-name="001-office-building" xmlns="http://www.w3.org/2000/svg" width="33.079" height="33.078" viewBox="0 0 33.079 33.078">
  <path id="Path_26" data-name="Path 26" d="M26.127,13.526H14.412A2.415,2.415,0,0,1,12,11.114v-6.2A2.415,2.415,0,0,1,14.412,2.5H26.127a2.415,2.415,0,0,1,2.412,2.412v6.2A2.415,2.415,0,0,1,26.127,13.526ZM14.412,4.567a.345.345,0,0,0-.345.345v6.2a.345.345,0,0,0,.345.345H26.127a.345.345,0,0,0,.345-.345v-6.2a.345.345,0,0,0-.345-.345Z" transform="translate(4.539 0.946)" fill="#fff"/>
  <path id="Path_27" data-name="Path 27" d="M22.236,5.513A1.034,1.034,0,0,1,21.2,4.479V2.412a.345.345,0,0,0-.345-.345H17.412a.345.345,0,0,0-.345.345V4.479a1.034,1.034,0,0,1-2.067,0V2.412A2.415,2.415,0,0,1,17.412,0h3.446a2.415,2.415,0,0,1,2.412,2.412V4.479A1.034,1.034,0,0,1,22.236,5.513Z" transform="translate(5.674)" fill="#fff"/>
  <path id="Path_28" data-name="Path 28" d="M20.269,9.013a1.019,1.019,0,0,1-.444-.1L12.59,5.467A1.033,1.033,0,1,1,13.479,3.6l6.791,3.232L27.061,3.6a1.033,1.033,0,0,1,.889,1.865L20.714,8.911A1.011,1.011,0,0,1,20.269,9.013Z" transform="translate(4.539 1.323)" fill="#fff"/>
  <path id="Path_29" data-name="Path 29" d="M15.505,31.376H1.034A1.034,1.034,0,0,1,0,30.342V6.912A2.415,2.415,0,0,1,2.412,4.5H13.093a1.034,1.034,0,1,1,0,2.067H2.412a.348.348,0,0,0-.345.345v22.4h12.4V15.87a1.034,1.034,0,1,1,2.067,0V30.342A1.034,1.034,0,0,1,15.505,31.376Z" transform="translate(0 1.702)" fill="#fff"/>
  <path id="Path_30" data-name="Path 30" d="M11.992,7.513H3.034A1.034,1.034,0,0,1,2,6.479V4.412A2.415,2.415,0,0,1,4.412,2h6.2a2.415,2.415,0,0,1,2.412,2.412V6.479A1.034,1.034,0,0,1,11.992,7.513ZM4.067,5.446h6.891V4.412a.345.345,0,0,0-.345-.345h-6.2a.345.345,0,0,0-.345.345Z" transform="translate(0.756 0.756)" fill="#fff"/>
  <path id="Path_31" data-name="Path 31" d="M6.284,4.824A1.034,1.034,0,0,1,5.25,3.79V1.034a1.034,1.034,0,1,1,2.067,0V3.79A1.034,1.034,0,0,1,6.284,4.824Z" transform="translate(1.986)" fill="#fff"/>
  <path id="Path_32" data-name="Path 32" d="M15.284,25.984A1.034,1.034,0,0,1,14.25,24.95V19.789a1.034,1.034,0,1,1,2.067,0V24.95A1.034,1.034,0,0,1,15.284,25.984Z" transform="translate(5.39 7.094)" fill="#fff"/>
  <path id="Path_33" data-name="Path 33" d="M15.756,21.513a2.756,2.756,0,1,1,2.756-2.756A2.759,2.759,0,0,1,15.756,21.513Zm0-3.446a.689.689,0,1,0,.689.689A.691.691,0,0,0,15.756,18.067Z" transform="translate(4.917 6.052)" fill="#fff"/>
  <path id="Path_34" data-name="Path 34" d="M9.358,26.269H4.534A1.034,1.034,0,0,1,3.5,25.236v-6.2A1.034,1.034,0,0,1,4.534,18H9.358a1.034,1.034,0,0,1,1.034,1.034v6.2A1.034,1.034,0,0,1,9.358,26.269ZM5.567,24.2H8.324V20.067H5.567Z" transform="translate(1.324 6.808)" fill="#fff"/>
  <path id="Path_35" data-name="Path 35" d="M8.479,15.567H5.034a1.034,1.034,0,0,1,0-2.067H8.479a1.034,1.034,0,1,1,0,2.067Z" transform="translate(1.513 5.106)" fill="#fff"/>
  <path id="Path_36" data-name="Path 36" d="M8.479,9.567H5.034a1.034,1.034,0,0,1,0-2.067H8.479a1.034,1.034,0,0,1,0,2.067Z" transform="translate(1.513 2.837)" fill="#fff"/>
  <path id="Path_37" data-name="Path 37" d="M8.479,12.567H5.034a1.034,1.034,0,0,1,0-2.067H8.479a1.034,1.034,0,1,1,0,2.067Z" transform="translate(1.513 3.972)" fill="#fff"/>
  <path id="Path_38" data-name="Path 38" d="M21.749,24.567H10.034a1.034,1.034,0,1,1,0-2.067H21.749a1.034,1.034,0,0,1,0,2.067Z" transform="translate(3.404 8.51)" fill="#fff"/>
</svg>
